# xmcd CD database file
#
# Track frame offsets:
#	150
#	21730
#	42077
#	44404
#	74103
#	98431
#	121244
#	140704
#	144183
#	161945
#	195747
#	198181
#	221499
#	248234
#	250480
#	269657
#	297548
#	301403
#
# Disc length: 4190 seconds
#
# Revision: 0
# Processed by: cddbd v1.5.2PL0 Copyright (c) Steve Scherf et al.
# Submitted via: CDex 1.70beta2
#
DISCID=24105c12
DTITLE=Joo Kraus - Basic Jazz Lounge - The Ride
DYEAR=2006
DGENRE=Jazz
TTITLE0=My Ride
TTITLE1=Diskojazz
TTITLE2=Tea Lounge
TTITLE3=Jazzheaven
TTITLE4=Morning Song
TTITLE5=San Fran Safari Club
TTITLE6=Comecar De Novo
TTITLE7=Meditation Lounge
TTITLE8=Looking Out
TTITLE9=Spring Is Near
TTITLE10=Waterfall Lounge
TTITLE11=No One Can Tell
TTITLE12=Moonlight Serenade
TTITLE13=Lonesome Lounge
TTITLE14=Sticky Wicket
TTITLE15=Bolero
TTITLE16=Lake Lounge
TTITLE17=Benny's Lake
EXTD=YEAR: 2006
EXTT0=
EXTT1=
EXTT2=
EXTT3=
EXTT4=
EXTT5=
EXTT6=
EXTT7=
EXTT8=
EXTT9=
EXTT10=
EXTT11=
EXTT12=
EXTT13=
EXTT14=
EXTT15=
EXTT16=
EXTT17=
PLAYORDER=
